<svg width="11" height="12" viewBox="0 0 11 12" fill="none" xmlns="http://www.w3.org/2000/svg">
<path fill-rule="evenodd" clip-rule="evenodd" d="M5.29722 0.000962257C5.12257 0.00862503 4.95041 0.0844259 4.82467 0.228333L0.164648 5.56167C-0.0776107 5.83893 -0.0492348 6.26009 0.228027 6.50234C0.50529 6.7446 0.926445 6.71623 1.1687 6.43896L4.66668 2.43557L4.66668 11.3333C4.66668 11.7015 4.96516 12 5.33335 12C5.70154 12 6.00001 11.7015 6.00001 11.3333L6.00001 2.44697L9.4986 6.43967C9.74125 6.71659 10.1624 6.74437 10.4394 6.50172C10.7163 6.25907 10.7441 5.83788 10.5014 5.56096L5.88602 0.293723C5.7662 0.116503 5.56338 0 5.33335 0C5.32123 0 5.30918 0.000323296 5.29722 0.000962257Z" fill="#FC471E"/>
</svg>
