<svg width="40" height="40" viewBox="0 0 40 40" fill="none" xmlns="http://www.w3.org/2000/svg">
<rect x="1" y="1" width="38" height="38" rx="19" stroke="#0C0B0B" stroke-width="2"/>
<path d="M20.2279 25.3335L20.2279 26.5406L21.0815 25.6871L24.4919 22.2767L24.1383 21.9231L24.4919 22.2767C24.5804 22.1881 24.724 22.1881 24.8125 22.2767C24.901 22.3652 24.901 22.5088 24.8125 22.5973L20.1616 27.2483C20.073 27.3368 19.9295 27.3368 19.8409 27.2483L19.4874 27.6018L19.8409 27.2483L15.1901 22.5976C15.1456 22.553 15.1235 22.4957 15.1235 22.4371C15.1235 22.3784 15.1456 22.3212 15.1899 22.2768C15.2785 22.1882 15.422 22.1882 15.5106 22.2768L15.5106 22.2768L18.921 25.6871L19.7745 26.5406L19.7745 25.3335L19.7745 12.9123C19.7745 12.7871 19.8761 12.6855 20.0012 12.6855C20.1264 12.6855 20.2279 12.7871 20.2279 12.9123L20.2279 25.3335Z" fill="#0C0B0B" stroke="#0C0B0B"/>
</svg>
