<svg width="40" height="40" viewBox="0 0 40 40" fill="none" xmlns="http://www.w3.org/2000/svg">
<rect x="39" y="39" width="38" height="38" rx="19" transform="rotate(-180 39 39)" stroke="#0C0B0B" stroke-width="2"/>
<path d="M19.7721 14.6665L19.7721 13.4594L18.9185 14.3129L15.5081 17.7233L15.8617 18.0769L15.5081 17.7233C15.4196 17.8119 15.276 17.8119 15.1875 17.7233C15.099 17.6348 15.099 17.4912 15.1875 17.4027L19.8384 12.7517C19.927 12.6632 20.0705 12.6632 20.1591 12.7517L20.5126 12.3982L20.1591 12.7517L24.8099 17.4024C24.8544 17.447 24.8765 17.5043 24.8765 17.5629C24.8765 17.6216 24.8544 17.6788 24.8101 17.7232C24.7215 17.8118 24.578 17.8118 24.4894 17.7232L24.4894 17.7232L21.079 14.3129L20.2255 13.4594L20.2255 14.6665L20.2255 27.0877C20.2255 27.2129 20.1239 27.3145 19.9988 27.3145C19.8736 27.3145 19.7721 27.2129 19.7721 27.0877L19.7721 14.6665Z" fill="#0C0B0B" stroke="#0C0B0B"/>
</svg>
