<svg width="15" height="15" viewBox="0 0 15 15" fill="none" xmlns="http://www.w3.org/2000/svg">
<path d="M8.37428 11.0206H2.5269C1.79425 11.0199 1.20039 10.3318 1.19974 9.48274V0.558034C1.19974 0.486476 1.20416 0.414921 1.21278 0.344238C0.558033 0.451635 0.0710672 1.10052 0.0703125 1.86678V10.7917C0.0710672 11.6407 0.664823 12.3285 1.39727 12.3295H8.719L8.37428 11.0206Z" fill="#D4E1F4"/>
<path d="M12.2037 1.87768V7.26353C12.0442 7.23158 11.8829 7.21347 11.721 7.20923V3.80886H0.482656V10.6115C0.483411 11.3391 0.992361 11.9287 1.62028 11.9298H8.35364C8.38876 12.1201 8.43649 12.3071 8.49642 12.489H1.62028C0.72587 12.4877 0.00118668 11.6478 0 10.6115V1.87768C0.00107735 0.84107 0.72587 0.00124851 1.62028 0H10.5834C11.4778 0.00112181 12.2027 0.84107 12.2037 1.87768ZM11.721 3.2495V1.87768C11.7204 1.15002 11.2114 0.560087 10.5834 0.55934H1.62028C0.992361 0.560214 0.483411 1.15002 0.482656 1.87768V3.2495H11.721Z" fill="#FF4500"/>
<path d="M12.206 7.26357C12.0466 7.23162 11.8852 7.21351 11.7234 7.20924C11.6962 7.20825 11.6685 7.20801 11.6409 7.20801C11.5076 7.20801 11.3997 7.33314 11.3997 7.48759C11.3997 7.64208 11.5076 7.76733 11.6409 7.76733C11.7402 7.76733 11.8382 7.77321 11.935 7.78446C13.3647 7.95517 14.4667 9.32173 14.5171 10.9863C14.5675 12.6508 13.5509 14.1035 12.1351 14.3901C10.7194 14.6766 9.33812 13.7094 8.89857 12.1236C8.86905 12.0168 8.84425 11.9085 8.82454 11.7987H9.26119C9.34932 11.7986 9.43036 11.743 9.47282 11.6535C9.51506 11.5641 9.51194 11.4549 9.46474 11.3688L8.76732 10.1001C8.72292 10.0193 8.6462 9.97049 8.56366 9.97049C8.48121 9.97049 8.40449 10.0193 8.36019 10.1001L7.66277 11.3688C7.61536 11.4549 7.61245 11.5642 7.6548 11.6538C7.69725 11.7432 7.77829 11.7987 7.86656 11.7987H8.33369C8.34049 11.8426 8.34771 11.8867 8.35601 11.9299C8.39113 12.1202 8.43886 12.3071 8.49878 12.4891C9.07745 14.2521 10.6629 15.2813 12.2626 14.9325C13.8621 14.5836 15.0163 12.9569 15.0024 11.0705C14.9885 9.18436 13.8105 7.58065 12.206 7.26357ZM8.30632 11.2394L8.56398 10.7708L8.82142 11.2394H8.30632Z" fill="#1AE5BE"/>
<path d="M11.4757 9.11572C11.3423 9.11572 11.2344 9.24085 11.2344 9.39534V11.3885C11.2344 11.5429 11.3423 11.6682 11.4757 11.6682H12.7861C12.9193 11.6682 13.0274 11.5429 13.0274 11.3885C13.0274 11.2341 12.9193 11.1088 12.7861 11.1088H11.717V9.39534C11.7169 9.24098 11.6089 9.11585 11.4757 9.11572Z" fill="#1AE5BE"/>
<path d="M5.40794 1.14307H5.40602C5.03349 1.1422 4.731 1.4916 4.73047 1.92333C4.72983 2.35514 5.03133 2.70556 5.40397 2.70618H5.40602C5.77747 2.70581 6.07886 2.35765 6.08059 1.92719C6.08155 1.49559 5.78059 1.14455 5.40794 1.14307ZM5.40602 2.14698H5.40557C5.29976 2.14661 5.214 2.04669 5.21432 1.92394C5.21474 1.80157 5.3004 1.70252 5.40602 1.70227H5.40666C5.51259 1.70252 5.59837 1.80218 5.59816 1.92506C5.59803 2.04781 5.51194 2.1471 5.40602 2.14698Z" fill="#1AE5BE"/>
<path d="M3.46274 1.13623H3.4606C3.08817 1.13561 2.78569 1.48501 2.78516 1.91658C2.78462 2.34831 3.08612 2.69873 3.45866 2.69934H3.4606C3.83216 2.69873 4.13365 2.35056 4.13528 1.92011V1.9176C4.13485 1.48702 3.83432 1.13784 3.46274 1.13623ZM3.4606 2.14014H3.45994C3.35402 2.13989 3.26834 2.04023 3.26844 1.91735C3.26858 1.79457 3.35466 1.69531 3.4606 1.69543H3.46135C3.56727 1.69581 3.65295 1.79572 3.65261 1.91834C3.65207 2.04085 3.56631 2.13989 3.4606 2.14014Z" fill="#1AE5BE"/>
<path d="M1.51744 1.12891H1.51539C1.14286 1.12829 0.84049 1.47769 0.839844 1.90941C0.839306 2.34098 1.14082 2.69152 1.51324 2.69217H1.51539C1.88684 2.69165 2.18802 2.34349 2.18962 1.91315V1.91028C2.18941 1.47994 1.88899 1.13067 1.51744 1.12891ZM1.51539 2.13282H1.51474C1.40882 2.13269 1.32304 2.0329 1.32315 1.91015C1.32336 1.78728 1.40946 1.68786 1.51539 1.68823H1.51615C1.62207 1.68839 1.70774 1.78815 1.70763 1.9109C1.70731 2.0338 1.62132 2.13319 1.51539 2.13282Z" fill="#1AE5BE"/>
</svg>
