<svg width="24" height="24" viewBox="0 0 24 24" fill="none" xmlns="http://www.w3.org/2000/svg">
<path fill-rule="evenodd" clip-rule="evenodd" d="M20.0398 4.24227C19.5998 3.82583 18.9113 3.82508 18.4704 4.24056L12.4988 9.86786L6.52723 4.24056C6.08633 3.82508 5.39783 3.82583 4.95784 4.24227L4.89241 4.30419C4.41536 4.75571 4.41618 5.51549 4.89422 5.96597L10.7668 11.5L4.89422 17.034C4.41618 17.4845 4.41536 18.2443 4.89242 18.6958L4.95784 18.7577C5.39783 19.1742 6.08634 19.1749 6.52723 18.7594L12.4988 13.1321L18.4704 18.7594C18.9113 19.1749 19.5998 19.1742 20.0398 18.7577L20.1052 18.6958C20.5822 18.2443 20.5814 17.4845 20.1034 17.034L14.2308 11.5L20.1034 5.96597C20.5814 5.51549 20.5822 4.75571 20.1052 4.30419L20.0398 4.24227Z" fill="#0A1629"/>
</svg>
