<svg width="22" height="22" viewBox="0 0 22 22" fill="none" xmlns="http://www.w3.org/2000/svg">
<path d="M15.5848 16.5024V11.0001C15.5849 10.5136 15.3917 10.0471 15.0477 9.70306C14.7037 9.35907 14.2372 9.16588 13.7507 9.16602H4.58019C4.09372 9.16588 3.62713 9.35907 3.28314 9.70306C2.93915 10.0471 2.74596 10.5136 2.74609 11.0001V16.5024C2.74596 16.9889 2.93915 17.4555 3.28314 17.7995C3.62713 18.1434 4.09372 18.3366 4.58019 18.3365H13.7507C14.7636 18.3365 15.5848 17.5153 15.5848 16.5024Z" stroke="#C3CAD9" stroke-width="1.5" stroke-linecap="round" stroke-linejoin="round"/>
<path d="M5.68359 9.16583L6.79322 5.02077C6.91912 4.55101 7.22678 4.15065 7.6483 3.90806C8.06983 3.66546 8.57056 3.60058 9.03999 3.72774L17.8987 6.10289C18.3685 6.22879 18.7688 6.53645 19.0114 6.95797C19.254 7.3795 19.3189 7.88023 19.1917 8.34966L17.7703 13.6594C17.5174 14.615 16.5502 15.1961 15.5877 14.9708" stroke="#C3CAD9" stroke-width="1.5" stroke-linecap="round" stroke-linejoin="round"/>
</svg>
