<svg width="30" height="30" viewBox="0 0 30 30" fill="none" xmlns="http://www.w3.org/2000/svg">
<path d="M24.2478 14.5006L25.3514 12.5932C25.4841 12.3637 25.5202 12.0909 25.4517 11.8348C25.3833 11.5788 25.216 11.3603 24.9866 11.2276L23.0772 10.1239V7.92458C23.0772 7.65944 22.9719 7.40516 22.7844 7.21768C22.5969 7.0302 22.3427 6.92488 22.0775 6.92488H19.8793L18.7766 5.01645C18.6435 4.78743 18.4255 4.62007 18.1698 4.55059C18.043 4.51621 17.9107 4.50735 17.7804 4.52451C17.6502 4.54167 17.5246 4.58451 17.4111 4.65056L15.5017 5.75423L13.5923 4.64956C13.3627 4.51699 13.0899 4.48107 12.8338 4.54969C12.5777 4.61831 12.3594 4.78584 12.2268 5.01545L11.1232 6.92488H8.92489C8.65976 6.92488 8.40549 7.0302 8.21801 7.21768C8.03054 7.40516 7.92522 7.65944 7.92522 7.92458V10.1229L6.01585 11.2266C5.90192 11.2921 5.80206 11.3795 5.72201 11.4838C5.64196 11.588 5.5833 11.7071 5.54939 11.834C5.51549 11.961 5.50701 12.0935 5.52444 12.2238C5.54187 12.354 5.58487 12.4796 5.65097 12.5932L6.75461 14.5006L5.65097 16.408C5.519 16.6377 5.4832 16.9103 5.55136 17.1663C5.61953 17.4223 5.78613 17.641 6.01485 17.7746L7.92422 18.8783V21.0766C7.92422 21.3418 8.02954 21.5961 8.21701 21.7835C8.40449 21.971 8.65876 22.0763 8.92389 22.0763H11.1232L12.2268 23.9858C12.3153 24.1371 12.4417 24.2627 12.5935 24.3504C12.7452 24.438 12.9172 24.4846 13.0925 24.4856C13.2664 24.4856 13.4394 24.4396 13.5933 24.3507L15.5007 23.247L17.4101 24.3507C17.6396 24.483 17.9123 24.519 18.1683 24.4506C18.4243 24.3822 18.6427 24.215 18.7756 23.9858L19.8783 22.0763H22.0765C22.3417 22.0763 22.5959 21.971 22.7834 21.7835C22.9709 21.5961 23.0762 21.3418 23.0762 21.0766V18.8783L24.9856 17.7746C25.0993 17.7089 25.199 17.6214 25.2789 17.5171C25.3588 17.4129 25.4173 17.2939 25.4512 17.167C25.4851 17.04 25.4937 16.9077 25.4764 16.7775C25.4591 16.6472 25.4163 16.5217 25.3504 16.408L24.2478 14.5006ZM13.0015 9.49211C13.3994 9.49224 13.7808 9.65041 14.0621 9.93182C14.3433 10.2132 14.5012 10.5948 14.501 10.9927C14.5009 11.3905 14.3427 11.772 14.0613 12.0532C13.7799 12.3344 13.3984 12.4923 13.0005 12.4922C12.6027 12.4921 12.2212 12.3339 11.94 12.0525C11.6588 11.7711 11.5009 11.3895 11.501 10.9917C11.5012 10.5938 11.6593 10.2123 11.9407 9.93111C12.2221 9.64989 12.6037 9.49198 13.0015 9.49211ZM13.3014 19.0892L11.702 17.8906L17.7 9.89299L19.2995 11.0916L13.3014 19.0892ZM17.9999 19.4891C17.8029 19.4891 17.6079 19.4502 17.4259 19.3747C17.2439 19.2993 17.0786 19.1887 16.9394 19.0494C16.8001 18.9101 16.6897 18.7447 16.6144 18.5627C16.539 18.3806 16.5003 18.1856 16.5004 17.9886C16.5004 17.7916 16.5393 17.5965 16.6147 17.4146C16.6902 17.2326 16.8007 17.0673 16.9401 16.928C17.0794 16.7888 17.2448 16.6783 17.4268 16.603C17.6088 16.5277 17.8039 16.489 18.0009 16.489C18.3987 16.4891 18.7802 16.6473 19.0614 16.9287C19.3426 17.2101 19.5005 17.5917 19.5004 17.9896C19.5003 18.3874 19.3421 18.7689 19.0607 19.0501C18.7793 19.3313 18.3977 19.4893 17.9999 19.4891Z" fill="#C3CAD9"/>
</svg>
