<svg width="15" height="15" viewBox="0 0 15 15" fill="none" xmlns="http://www.w3.org/2000/svg">
<path d="M3.60391 14.0972H0.976562L1.04979 14.7536H3.78696L3.60391 14.0972Z" fill="#D4E1F4"/>
<path d="M14.2112 8.36865L10.1804 11.5438C9.59559 11.8731 8.92468 11.9801 8.27633 11.8477L5.5804 11.2783C5.43456 11.237 5.28249 11.2277 5.13324 11.2509C4.98398 11.2741 4.84058 11.3292 4.71149 11.4132C4.70844 11.4151 4.70561 11.4171 4.70275 11.4191L3.45038 12.3275L2.74609 9.67753L3.6392 13.0386L4.89162 12.1302C4.89449 12.1281 4.89737 12.1261 4.90034 12.1242C5.02943 12.0403 5.17283 11.9851 5.32209 11.962C5.47134 11.9388 5.62338 11.9481 5.76923 11.9894L8.46513 12.5589C9.11351 12.6913 9.78441 12.5843 10.3692 12.255L14.8744 8.70602C14.7934 8.60113 14.6921 8.51657 14.5775 8.45831C14.4629 8.40002 14.3379 8.36944 14.2112 8.36865Z" fill="#D4E1F4"/>
<path d="M13.3319 8.31088L13.2472 8.36085C12.9399 7.94534 12.4009 7.78317 11.9911 8.01043L11.987 8.01275L11.7987 8.12353C11.5846 7.92192 11.3169 7.79796 11.0337 7.76916C10.7505 7.74037 10.466 7.80821 10.2206 7.9631L9.23703 8.54826H7.92888C7.64437 8.54778 7.36368 8.47739 7.10826 8.3425L6.92864 8.2473C6.41974 7.97612 5.85027 7.86431 5.28522 7.92467C4.72015 7.98503 4.18219 8.21509 3.73271 8.58867C3.72865 8.59195 3.72477 8.59539 3.72113 8.59904L3.28754 9.02149C3.12047 9.1845 2.92157 9.30517 2.70551 9.37457L2.45505 8.47571C2.44376 8.43516 2.4206 8.39958 2.38905 8.37432C2.35746 8.34903 2.31919 8.33536 2.27983 8.33536H0.182918C0.157058 8.33539 0.131489 8.34127 0.107903 8.3527C0.0843165 8.36413 0.063246 8.38079 0.0460857 8.40163C0.0289228 8.42244 0.0160578 8.44695 0.00833879 8.47353C0.000619785 8.50011 -0.00177891 8.52815 0.00130401 8.55579L0.700266 14.8267C0.705596 14.8746 0.727021 14.9186 0.760488 14.9506C0.793955 14.9825 0.837142 15.0002 0.88188 15.0002H4.02724C4.05578 15.0002 4.08387 14.993 4.10937 14.9792C4.13484 14.9654 4.15698 14.9454 4.17402 14.9208C4.19103 14.8962 4.20246 14.8676 4.2074 14.8374C4.21234 14.8071 4.21065 14.7761 4.20245 14.7467L3.78526 13.2495L5.08245 12.3523C5.25637 12.2467 5.46146 12.2176 5.65484 12.271C5.65869 12.2721 5.66254 12.273 5.66644 12.2738L8.28419 12.8011C8.99401 12.9399 9.7265 12.8267 10.3714 12.4787C10.3792 12.4745 10.3867 12.4696 10.3939 12.4643L14.9217 9.06295C14.9596 9.03452 14.9861 8.99172 14.9958 8.94315C15.0056 8.89458 14.998 8.84383 14.9744 8.80106C14.8141 8.50484 14.5526 8.2878 14.2458 8.19624C13.9389 8.10465 13.611 8.1458 13.3319 8.31088ZM12.1604 8.35953C12.396 8.23024 12.7153 8.32222 12.9193 8.55439L11.1817 9.57985L11.0697 9.64449C11.0139 9.4651 10.9294 9.2976 10.8199 9.1496L12.1604 8.35953ZM10.3996 8.30676C10.4011 8.3059 10.4027 8.30497 10.404 8.30405C10.5629 8.20327 10.745 8.15235 10.9294 8.15706C11.1138 8.16173 11.2934 8.22184 11.4478 8.33057L10.5454 8.86268C10.3682 8.7197 10.1631 8.62198 9.94563 8.57691L10.3996 8.30676ZM1.04417 14.6063L0.389107 8.72925H2.14374L3.78138 14.6063H1.04417ZM10.1955 12.1331C9.6247 12.4379 8.97783 12.5363 8.35095 12.4139L5.73928 11.8877C5.45425 11.8107 5.15262 11.8554 4.89753 12.0124C4.89462 12.0142 4.89181 12.0161 4.88905 12.018L3.67591 12.8569L2.81064 9.75182C3.07876 9.66561 3.32558 9.51588 3.53298 9.3136L3.96087 8.89674C4.35624 8.56999 4.82874 8.36908 5.32479 8.31679C5.82082 8.26453 6.32056 8.36295 6.76726 8.60094L6.94688 8.69597C7.25257 8.85736 7.58841 8.94156 7.92888 8.94214H9.67033C10.2191 8.94214 10.6764 9.38051 10.7662 9.95486L9.48806 9.89156C9.02973 9.86904 8.57047 9.89226 8.1161 9.96088C8.06807 9.96816 8.02468 9.9957 7.99549 10.0374C7.9663 10.0791 7.9537 10.1316 7.96044 10.1834C7.96721 10.2351 7.99278 10.2818 8.03152 10.3132C8.07028 10.3446 8.11904 10.3582 8.16709 10.3509C8.59898 10.2856 9.03559 10.2636 9.47128 10.285L10.9567 10.3586C10.9595 10.3587 10.9623 10.3588 10.9651 10.3588C11.0137 10.3588 11.0602 10.338 11.0945 10.3011C11.1288 10.2642 11.1481 10.2141 11.1481 10.1618C11.1481 10.1237 11.1464 10.086 11.144 10.0485L11.3561 9.92612L13.5078 8.65606C13.678 8.5554 13.875 8.52019 14.0662 8.55627C14.2575 8.59234 14.4317 8.69751 14.5599 8.85448L10.1955 12.1331Z" fill="#FF4500"/>
<path d="M1.6836 13.706C1.68494 13.834 1.7214 13.9586 1.78839 14.0643C1.85538 14.17 1.94992 14.252 2.0601 14.2999C2.17027 14.3479 2.29117 14.3597 2.40754 14.3339C2.52394 14.308 2.63063 14.2457 2.7142 14.1547C2.79776 14.0637 2.85448 13.9482 2.87716 13.8226C2.89985 13.697 2.88754 13.567 2.84176 13.4489C2.79597 13.3309 2.71875 13.23 2.61984 13.1591C2.52095 13.0881 2.40476 13.0503 2.28592 13.0503C2.12533 13.0514 1.97173 13.1212 1.85881 13.2441C1.7459 13.367 1.68289 13.5332 1.6836 13.706ZM2.28592 13.4442C2.33431 13.4427 2.38205 13.4568 2.42297 13.4847C2.4639 13.5125 2.49616 13.5529 2.51564 13.6007C2.53513 13.6484 2.54096 13.7013 2.53234 13.7526C2.52373 13.8039 2.5011 13.8513 2.46736 13.8887C2.43359 13.9261 2.39024 13.9518 2.34284 13.9625C2.29544 13.9732 2.24616 13.9685 2.20128 13.9488C2.15641 13.9292 2.11799 13.8957 2.09094 13.8524C2.06389 13.8091 2.04945 13.7582 2.04945 13.706C2.04863 13.6376 2.07306 13.5716 2.11739 13.5225C2.16172 13.4734 2.22232 13.4452 2.28592 13.4442Z" fill="#FF4500"/>
<path d="M8.3801 0C6.54646 0 5.05469 1.60408 5.05469 3.57579C5.05469 5.5475 6.54646 7.15154 8.3801 7.15154C10.2138 7.15154 11.7055 5.54744 11.7055 3.57579C11.7055 1.60412 10.2139 0 8.3801 0ZM8.3801 6.75768C7.79573 6.75681 7.2247 6.56946 6.73918 6.21932C6.2537 5.86915 5.8755 5.37191 5.65241 4.79042C5.42932 4.20893 5.37138 3.56929 5.48588 2.95234C5.60038 2.33539 5.88218 1.76883 6.29569 1.32426C6.70919 0.879699 7.23583 0.577083 7.80902 0.454662C8.38224 0.332244 8.97629 0.395513 9.51613 0.636476C10.0559 0.877438 10.5173 1.28528 10.8419 1.80846C11.1664 2.33164 11.3397 2.94665 11.3397 3.57579C11.3382 4.41995 11.0258 5.22904 10.471 5.82557C9.91618 6.42207 9.16423 6.75728 8.3801 6.75768Z" fill="#1AE5BE"/>
<path d="M8.45802 2.11818C8.93102 2.13911 9.04302 2.5582 9.05447 2.60725C9.06568 2.65805 9.09521 2.70197 9.13653 2.72936C9.17784 2.75676 9.22756 2.76536 9.27478 2.75326C9.32197 2.74118 9.36279 2.70939 9.38821 2.66492C9.41365 2.62044 9.42164 2.56691 9.4104 2.51608C9.36086 2.31637 9.25836 2.13653 9.11543 1.99853C8.97249 1.86053 8.7953 1.77034 8.60553 1.739V1.48991C8.60553 1.43768 8.58626 1.38759 8.55194 1.35065C8.51765 1.31372 8.47111 1.29297 8.42262 1.29297C8.3741 1.29297 8.32755 1.31372 8.29326 1.35065C8.25895 1.38759 8.23967 1.43768 8.23967 1.48991V1.73976C8.07512 1.76712 7.92232 1.84818 7.80192 1.97201C7.54376 2.24257 7.52849 2.6252 7.52995 2.73623C7.53559 3.16291 7.83132 3.52308 8.24896 3.61217L8.28554 3.62002C8.31678 3.62657 8.35515 3.635 8.37865 3.63993C8.39212 3.64276 8.42717 3.65427 8.44223 3.65923C8.44751 3.66097 8.45266 3.66304 8.45769 3.66545C8.46013 3.6666 8.46255 3.66766 8.46502 3.66873L8.52239 3.69278C8.52746 3.69491 8.5324 3.69732 8.53724 3.70001C8.5643 3.71508 8.57093 3.71931 8.5906 3.73188C8.59867 3.73698 8.60824 3.74314 8.6206 3.7509L8.62669 3.75522C8.62861 3.75653 8.63072 3.75799 8.63309 3.75956C8.6923 3.79894 8.98813 4.01035 8.99989 4.318C9.00702 4.50479 8.963 4.64668 8.86528 4.75171C8.71525 4.91296 8.47361 4.94694 8.35385 4.94114C8.22991 4.92786 8.11125 4.88036 8.00935 4.80328C7.92092 4.7374 7.81194 4.62352 7.79471 4.4549C7.7924 4.42891 7.78532 4.4037 7.77388 4.38071C7.76243 4.35769 7.74684 4.33738 7.72806 4.32091C7.70925 4.30444 7.6876 4.29217 7.66435 4.28478C7.64109 4.27741 7.61671 4.27509 7.59262 4.27792C7.56853 4.28077 7.54522 4.28876 7.52402 4.30139C7.50281 4.31402 7.48413 4.33108 7.46912 4.35155C7.45408 4.37203 7.44297 4.3955 7.43644 4.42062C7.42991 4.44575 7.42809 4.47205 7.43109 4.49793C7.47937 4.97133 7.90292 5.26192 8.23956 5.32312V5.53389C8.23956 5.58613 8.25882 5.6362 8.29313 5.67315C8.32745 5.71006 8.37397 5.73082 8.42249 5.73082C8.47101 5.73082 8.51752 5.71006 8.55184 5.67315C8.58613 5.6362 8.6054 5.58613 8.6054 5.53389V5.31189C8.80019 5.27523 8.98051 5.17731 9.1237 5.03049C9.29309 4.8484 9.37676 4.59643 9.36542 4.30181C9.34653 3.80896 8.949 3.50675 8.82459 3.42398C8.82298 3.42289 8.80935 3.41356 8.80784 3.41267L8.77706 3.39315C8.75315 3.37788 8.74009 3.36967 8.70513 3.35018C8.68879 3.34108 8.67198 3.3329 8.65484 3.32573L8.60083 3.3031C8.58392 3.29525 8.56661 3.28839 8.549 3.2826C8.51302 3.27075 8.47824 3.25963 8.4484 3.25338C8.42537 3.24856 8.38775 3.24044 8.35721 3.23386L8.32001 3.22588C8.03063 3.16415 7.89836 2.93268 7.89566 2.73068C7.89371 2.58417 7.9351 2.38211 8.05704 2.25434C8.15072 2.15622 8.28543 2.11026 8.45802 2.11818Z" fill="#1AE5BE"/>
</svg>
