<svg width="15" height="16" viewBox="0 0 15 16" fill="none" xmlns="http://www.w3.org/2000/svg">
<circle cx="7.59374" cy="8.25579" r="5.83459" fill="#888888"/>
<path fill-rule="evenodd" clip-rule="evenodd" d="M8.54544 6.24441C8.63661 6.08487 8.68789 5.89969 8.68789 5.70312C8.68789 5.09914 8.19787 4.60913 7.5939 4.60913C6.98993 4.60913 6.49992 5.09914 6.49992 5.70312C6.49992 6.30709 6.98993 6.7971 7.5939 6.7971C8.0013 6.7971 8.35741 6.57489 8.54544 6.24441ZM6.86458 7.52642H7.22924H7.95856C8.36168 7.52642 8.68789 7.85263 8.68789 8.25575V8.98507V11.9024C8.68789 12.3055 8.36168 12.6317 7.95856 12.6317C7.55544 12.6317 7.22924 12.3055 7.22924 11.9024V9.53206C7.22924 9.23008 6.98423 8.98507 6.68225 8.98507C6.38026 8.98507 6.13525 8.74006 6.13525 8.43808V8.25575C6.13525 7.99934 6.26773 7.77286 6.46715 7.64323C6.58111 7.56916 6.71786 7.52642 6.86458 7.52642Z" fill="white"/>
</svg>
