<svg width="30" height="30" viewBox="0 0 30 30" fill="none" xmlns="http://www.w3.org/2000/svg">
<path fill-rule="evenodd" clip-rule="evenodd" d="M5 12.2973V17.7027C5 20.2509 5 21.5249 5.84895 22.3166C6.62022 23.0357 7.81856 23.1014 10.0805 23.1076C9.96101 22.3582 9.93604 21.4631 9.92975 20.4099C9.92708 19.9621 10.3142 19.5971 10.7945 19.5946C11.2747 19.5921 11.6662 19.9531 11.6688 20.4009C11.6759 21.583 11.7088 22.421 11.8341 23.0569C11.9548 23.6697 12.1486 24.0243 12.4309 24.2876C12.7518 24.5868 13.2022 24.7819 14.0531 24.8884C14.9288 24.9983 16.0895 25 17.7538 25H18.9132C20.5773 25 21.738 24.9983 22.6138 24.8884C23.4646 24.7819 23.9151 24.5868 24.2359 24.2876C24.5568 23.9883 24.766 23.5682 24.8804 22.775C24.9981 21.9584 25 20.8761 25 19.3243V10.6757C25 9.12388 24.9981 8.04159 24.8804 7.225C24.766 6.43172 24.5568 6.01164 24.2359 5.71244C23.9151 5.41324 23.4646 5.21817 22.6138 5.11151C21.738 5.00172 20.5773 5 18.9132 5H17.7538C16.0895 5 14.9288 5.00172 14.0531 5.11151C13.2022 5.21817 12.7518 5.41324 12.4309 5.71244C12.1486 5.97563 11.9548 6.33031 11.8341 6.94308C11.7088 7.57902 11.6759 8.41694 11.6688 9.59911C11.6662 10.0469 11.2747 10.4079 10.7945 10.4054C10.3142 10.4029 9.92708 10.0379 9.92975 9.59008C9.93604 8.53691 9.96101 7.64176 10.0805 6.8925C7.81856 6.89852 6.62022 6.96432 5.84895 7.6835C5 8.4751 5 9.74917 5 12.2973ZM7.86335 15.5733C7.52376 15.2567 7.52376 14.7433 7.86335 14.4267L10.1822 12.2645C10.5217 11.9479 11.0723 11.9479 11.4119 12.2645C11.7515 12.5812 11.7515 13.0946 11.4119 13.4112L10.5775 14.1892H18.9128C19.3931 14.1892 19.7825 14.5522 19.7825 15C19.7825 15.4478 19.3931 15.8108 18.9128 15.8108H10.5775L11.4119 16.5888C11.7515 16.9054 11.7515 17.4189 11.4119 17.7354C11.0723 18.0521 10.5217 18.0521 10.1822 17.7354L7.86335 15.5733Z" fill="#C3CAD9"/>
</svg>
