<svg width="15" height="15" viewBox="0 0 15 15" fill="none" xmlns="http://www.w3.org/2000/svg">
<path d="M10.6328 6.91681C10.7902 6.90387 10.9465 6.87933 11.1002 6.84338C10.9825 6.81608 10.8665 6.78215 10.7528 6.7417C10.7147 6.80158 10.6742 6.85963 10.6328 6.91681Z" fill="#D4E1F4"/>
<path d="M2.9297 14.3659C2.92955 14.0906 3.04042 13.8265 3.23797 13.6315C3.43552 13.4365 3.70362 13.3264 3.9835 13.3256V11.6898C3.98352 10.9277 4.22897 10.1851 4.68462 9.56858C5.14027 8.9521 5.78272 8.4934 6.51982 8.25829C5.05282 7.79275 3.9835 6.43837 3.9835 4.8419V3.19094C3.70317 3.1892 3.43495 3.07835 3.2375 2.88263C3.04002 2.68692 2.92935 2.42227 2.9297 2.14654C2.92945 2.10062 2.94772 2.05648 2.9805 2.02379C3.0133 1.99111 3.05792 1.97254 3.1046 1.97217H1.63975C1.59307 1.97254 1.54844 1.99111 1.51566 2.02379C1.48287 2.05648 1.4646 2.10062 1.46485 2.14654C1.46451 2.42227 1.57517 2.68692 1.77264 2.88263C1.97012 3.07835 2.23833 3.1892 2.51865 3.19094V4.8419C2.51865 6.43835 3.588 7.79272 5.05497 8.25829C4.31787 8.4934 3.67542 8.9521 3.21977 9.56858C2.76412 10.1851 2.51867 10.9277 2.51865 11.6898V13.3255C2.23878 13.3264 1.97067 13.4364 1.77312 13.6314C1.57558 13.8264 1.46471 14.0905 1.46485 14.3658C1.46479 14.3883 1.46929 14.4106 1.47808 14.4315C1.48687 14.4523 1.49978 14.4711 1.51605 14.487C1.53233 14.5028 1.55164 14.5154 1.57288 14.5238C1.59411 14.5323 1.61684 14.5365 1.63975 14.5362H3.1046C3.0817 14.5365 3.05897 14.5323 3.03775 14.5238C3.01652 14.5154 2.9972 14.5029 2.98092 14.487C2.96465 14.4712 2.95175 14.4523 2.94295 14.4315C2.93415 14.4107 2.92965 14.3884 2.9297 14.3659Z" fill="#D4E1F4"/>
<path d="M10.3769 5.43992C10.3742 5.43992 10.3716 5.43952 10.3689 5.43952C10.3661 5.43952 10.3635 5.43979 10.3607 5.43992C10.1792 5.43765 10.0058 5.36516 9.87819 5.23815C9.75054 5.11115 9.67884 4.93983 9.67861 4.76123C9.67891 4.73841 9.67461 4.71576 9.66594 4.69459C9.65726 4.67342 9.64441 4.65414 9.62811 4.63791C9.61182 4.62165 9.59239 4.60877 9.57097 4.59997C9.54957 4.59116 9.52659 4.58661 9.50339 4.58661C9.48019 4.58661 9.45721 4.59116 9.43579 4.59997C9.41439 4.60877 9.39497 4.62165 9.37867 4.63791C9.36237 4.65414 9.34949 4.67342 9.34084 4.69459C9.33216 4.71576 9.32784 4.73841 9.32814 4.76123C9.32741 5.00337 9.41424 5.23788 9.57309 5.42285C9.73194 5.60784 9.95246 5.73126 10.1953 5.77105V6.11974C10.1953 6.1656 10.2138 6.20956 10.2468 6.242C10.2798 6.27441 10.3245 6.29263 10.3711 6.29263C10.4177 6.29263 10.4624 6.27441 10.4954 6.242C10.5283 6.20956 10.5469 6.1656 10.5469 6.11974V5.77105C10.804 5.7274 11.0351 5.59043 11.1945 5.38724C11.3539 5.18406 11.4299 4.92942 11.4077 4.67374C11.3854 4.41802 11.2663 4.17987 11.0741 4.00633C10.8818 3.8328 10.6304 3.73656 10.3695 3.7366C10.2329 3.73668 10.0995 3.69694 9.98589 3.62241C9.87231 3.54787 9.78379 3.44187 9.73146 3.31783C9.67916 3.19378 9.66541 3.05728 9.69201 2.92555C9.71859 2.79382 9.78429 2.67281 9.88079 2.57782C9.97729 2.48283 10.1003 2.41812 10.2342 2.39189C10.3681 2.36565 10.5069 2.37907 10.633 2.43044C10.7592 2.48182 10.867 2.56882 10.9429 2.68048C11.0187 2.79215 11.0592 2.92341 11.0592 3.05772C11.0598 3.10331 11.0786 3.14683 11.1116 3.17887C11.1446 3.21092 11.1891 3.22889 11.2355 3.22889C11.2819 3.22889 11.3264 3.21092 11.3594 3.17887C11.3924 3.14683 11.4112 3.10331 11.4118 3.05772C11.413 2.81578 11.3266 2.58131 11.1682 2.39629C11.0097 2.21126 10.7895 2.08774 10.5469 2.04782V1.73784C10.5469 1.69198 10.5283 1.64801 10.4954 1.61558C10.4624 1.58316 10.4177 1.56494 10.3711 1.56494C10.3245 1.56494 10.2798 1.58316 10.2468 1.61558C10.2138 1.64801 10.1953 1.69198 10.1953 1.73784V2.04782C9.93799 2.0909 9.70651 2.22743 9.54666 2.43038C9.38681 2.63334 9.31027 2.88792 9.33217 3.14376C9.35407 3.3996 9.47281 3.638 9.66491 3.8118C9.85701 3.9856 10.1085 4.08215 10.3695 4.08229C10.5521 4.08192 10.7274 4.15279 10.857 4.27931C10.9866 4.40585 11.0599 4.57776 11.0609 4.75737C11.0619 4.93697 10.9905 5.10967 10.8623 5.23759C10.7341 5.36551 10.5595 5.43829 10.3769 5.43992Z" fill="#1AE5BE"/>
<path d="M2.51865 11.6898V13.3255C2.23878 13.3264 1.97066 13.4364 1.77311 13.6314C1.57557 13.8264 1.46471 14.0905 1.46485 14.3658C1.46479 14.3883 1.46929 14.4106 1.47808 14.4315C1.48687 14.4523 1.49978 14.4711 1.51605 14.487C1.53233 14.5028 1.55164 14.5154 1.57288 14.5238C1.59411 14.5323 1.61684 14.5365 1.63975 14.5362H10.7231C10.746 14.5365 10.7687 14.5322 10.7899 14.5238C10.8111 14.5153 10.8303 14.5028 10.8465 14.487C10.8628 14.4711 10.8756 14.4522 10.8843 14.4314C10.893 14.4106 10.8975 14.3884 10.8973 14.3659C10.8974 14.0905 10.7864 13.8263 10.5887 13.6313C10.3911 13.4363 10.1228 13.3263 9.84287 13.3255V11.6746C9.84287 10.0771 8.7739 8.72221 7.30577 8.25738C8.1771 7.9814 8.9122 7.39522 9.36695 6.61377L9.06197 6.44044C8.7733 6.9378 8.35632 7.3514 7.85312 7.6395C7.34992 7.92762 6.77835 8.08001 6.19612 8.08129H6.1725C5.47327 8.08294 4.79157 7.86615 4.22567 7.46221C3.65975 7.05824 3.23885 6.48797 3.02365 5.8336H8.02647V5.48779H2.9328C2.8918 5.2744 2.87087 5.05773 2.87022 4.84055V3.18246H7.48832C7.53492 3.18246 7.57965 3.16424 7.6126 3.13183C7.64557 3.0994 7.6641 3.05543 7.6641 3.00957C7.6641 2.96371 7.64557 2.91974 7.6126 2.88731C7.57965 2.8549 7.53492 2.83667 7.48832 2.83667H2.52452C2.19428 2.83667 1.91605 2.63496 1.83765 2.31797H7.90302C7.94962 2.31797 7.99435 2.29975 8.0273 2.26733C8.06027 2.2349 8.0788 2.19092 8.0788 2.14507C8.0788 2.09921 8.06027 2.05523 8.0273 2.02281C7.99435 1.99038 7.94962 1.97217 7.90302 1.97217H1.63975C1.59307 1.97254 1.54844 1.99111 1.51566 2.02379C1.48287 2.05648 1.4646 2.10062 1.46485 2.14654C1.46451 2.42227 1.57517 2.68692 1.77264 2.88263C1.97012 3.07835 2.23833 3.1892 2.51865 3.19094V4.8419C2.52052 5.60098 2.7662 6.34006 3.22057 6.95361C3.67497 7.56713 4.31482 8.02377 5.0488 8.25831C4.31232 8.49364 3.67067 8.95257 3.21607 9.56914C2.76145 10.1857 2.5173 10.9282 2.51865 11.6898ZM10.5253 14.1904H1.83759C1.87941 14.0424 1.96902 13.9117 2.09293 13.8181C2.21684 13.7246 2.36831 13.6732 2.52452 13.6717H9.83845C9.99465 13.6732 10.1461 13.7246 10.27 13.8182C10.3939 13.9117 10.4835 14.0424 10.5253 14.1904ZM3.99797 13.3259L5.42627 11.9046C5.61587 11.7164 5.87357 11.6099 6.1429 11.6084C6.41222 11.6069 6.67115 11.7106 6.86287 11.8966L8.29945 13.3259H3.99797ZM6.16685 8.42708H6.1903C8.0089 8.42708 9.49132 9.88535 9.49132 11.6749V13.3259H8.79385L7.121 11.6613L7.11015 11.6505C6.852 11.4001 6.50342 11.2606 6.14085 11.2627C5.7783 11.2648 5.43137 11.4082 5.1762 11.6615L3.50355 13.3259H2.87022V11.6895C2.8678 10.8269 3.2137 9.99876 3.83187 9.38698C4.45005 8.77522 5.28995 8.42995 6.16685 8.42708Z" fill="#FF4500"/>
<path d="M10.3693 6.92788C10.9956 6.92788 11.6077 6.74523 12.1284 6.40301C12.6491 6.06079 13.055 5.57439 13.2946 5.0053C13.5342 4.43624 13.5969 3.81005 13.4748 3.20592C13.3526 2.60179 13.051 2.04687 12.6082 1.61133C12.1653 1.17579 11.6012 0.879193 10.987 0.759043C10.3728 0.638893 9.73615 0.700587 9.1576 0.936326C8.57905 1.17206 8.08455 1.57126 7.73668 2.08342C7.38878 2.59559 7.2031 3.19773 7.20313 3.81369C7.2041 4.63935 7.538 5.43093 8.13158 6.01473C8.72515 6.59855 9.52992 6.92695 10.3693 6.92788ZM10.3693 1.04505C10.926 1.04505 11.4702 1.20742 11.9331 1.51162C12.396 1.81582 12.7567 2.2482 12.9697 2.75407C13.1828 3.25997 13.2386 3.81661 13.13 4.35364C13.0213 4.89069 12.7533 5.38399 12.3597 5.77119C11.9661 6.15836 11.4645 6.42206 10.9186 6.52888C10.3726 6.63573 9.80663 6.58092 9.29233 6.37138C8.778 6.16188 8.3384 5.80704 8.0291 5.35178C7.7198 4.89652 7.55473 4.36126 7.5547 3.81369C7.5555 3.07967 7.8523 2.37593 8.37997 1.85689C8.90765 1.33785 9.6231 1.04588 10.3693 1.04505Z" fill="#1AE5BE"/>
</svg>
