<svg width="15" height="15" viewBox="0 0 15 15" fill="none" xmlns="http://www.w3.org/2000/svg">
<path d="M10.6328 6.91705C10.7902 6.90412 10.9465 6.87957 11.1002 6.84362C10.9825 6.81633 10.8665 6.78239 10.7528 6.74194C10.7147 6.80182 10.6742 6.85988 10.6328 6.91705Z" fill="#D4E1F4"/>
<path d="M2.9297 14.3664C2.92955 14.0911 3.04042 13.827 3.23797 13.6319C3.43552 13.4369 3.70362 13.3269 3.9835 13.3261V11.6903C3.98352 10.9282 4.22897 10.1856 4.68462 9.56906C5.14027 8.95259 5.78272 8.49388 6.51982 8.25878C5.05282 7.79324 3.9835 6.43886 3.9835 4.84239V3.19143C3.70317 3.18969 3.43495 3.07883 3.2375 2.88312C3.04002 2.68741 2.92935 2.42276 2.9297 2.14703C2.92945 2.10111 2.94772 2.05697 2.9805 2.02428C3.0133 1.9916 3.05792 1.97303 3.1046 1.97266H1.63975C1.59307 1.97303 1.54844 1.9916 1.51566 2.02428C1.48287 2.05697 1.4646 2.10111 1.46485 2.14703C1.46451 2.42276 1.57517 2.68741 1.77264 2.88312C1.97012 3.07883 2.23833 3.18969 2.51865 3.19143V4.84239C2.51865 6.43883 3.588 7.79321 5.05497 8.25878C4.31787 8.49388 3.67542 8.95259 3.21977 9.56906C2.76412 10.1856 2.51867 10.9282 2.51865 11.6903V13.326C2.23878 13.3269 1.97067 13.4369 1.77312 13.6319C1.57558 13.8269 1.46471 14.091 1.46485 14.3663C1.46479 14.3888 1.46929 14.4111 1.47808 14.4319C1.48687 14.4527 1.49978 14.4716 1.51605 14.4875C1.53233 14.5033 1.55164 14.5158 1.57288 14.5243C1.59411 14.5328 1.61684 14.537 1.63975 14.5367H3.1046C3.0817 14.537 3.05897 14.5328 3.03775 14.5243C3.01652 14.5159 2.9972 14.5034 2.98092 14.4875C2.96465 14.4717 2.95175 14.4528 2.94295 14.432C2.93415 14.4112 2.92965 14.3889 2.9297 14.3664Z" fill="#D4E1F4"/>
<path d="M10.3769 5.44016C10.3742 5.44016 10.3716 5.43977 10.3689 5.43977C10.3661 5.43977 10.3635 5.44004 10.3607 5.44016C10.1792 5.4379 10.0058 5.36541 9.87819 5.2384C9.75054 5.11139 9.67884 4.94007 9.67861 4.76147C9.67891 4.73865 9.67461 4.716 9.66594 4.69483C9.65726 4.67366 9.64441 4.65438 9.62811 4.63815C9.61182 4.6219 9.59239 4.60901 9.57097 4.60021C9.54957 4.59141 9.52659 4.58686 9.50339 4.58686C9.48019 4.58686 9.45721 4.59141 9.43579 4.60021C9.41439 4.60901 9.39497 4.6219 9.37867 4.63815C9.36237 4.65438 9.34949 4.67366 9.34084 4.69483C9.33216 4.716 9.32784 4.73865 9.32814 4.76147C9.32741 5.00361 9.41424 5.23813 9.57309 5.42309C9.73194 5.60809 9.95246 5.7315 10.1953 5.77129V6.11998C10.1953 6.16584 10.2138 6.20981 10.2468 6.24224C10.2798 6.27465 10.3245 6.29287 10.3711 6.29287C10.4177 6.29287 10.4624 6.27465 10.4954 6.24224C10.5283 6.20981 10.5469 6.16584 10.5469 6.11998V5.77129C10.804 5.72764 11.0351 5.59068 11.1945 5.38749C11.3539 5.1843 11.4299 4.92967 11.4077 4.67398C11.3854 4.41827 11.2663 4.18011 11.0741 4.00658C10.8818 3.83305 10.6304 3.7368 10.3695 3.73685C10.2329 3.73692 10.0995 3.69718 9.98589 3.62265C9.87231 3.54812 9.78379 3.44211 9.73146 3.31808C9.67916 3.19402 9.66541 3.05752 9.69201 2.92579C9.71859 2.79406 9.78429 2.67305 9.88079 2.57806C9.97729 2.48307 10.1003 2.41836 10.2342 2.39213C10.3681 2.3659 10.5069 2.37932 10.633 2.43069C10.7592 2.48206 10.867 2.56906 10.9429 2.68073C11.0187 2.79239 11.0592 2.92365 11.0592 3.05796C11.0598 3.10355 11.0786 3.14708 11.1116 3.17912C11.1446 3.21116 11.1891 3.22914 11.2355 3.22914C11.2819 3.22914 11.3264 3.21116 11.3594 3.17912C11.3924 3.14708 11.4112 3.10355 11.4118 3.05796C11.413 2.81602 11.3266 2.58155 11.1682 2.39653C11.0097 2.21151 10.7895 2.08798 10.5469 2.04807V1.73808C10.5469 1.69223 10.5283 1.64825 10.4954 1.61583C10.4624 1.5834 10.4177 1.56519 10.3711 1.56519C10.3245 1.56519 10.2798 1.5834 10.2468 1.61583C10.2138 1.64825 10.1953 1.69223 10.1953 1.73808V2.04807C9.93799 2.09114 9.70651 2.22767 9.54666 2.43062C9.38681 2.63359 9.31027 2.88817 9.33217 3.144C9.35407 3.39984 9.47281 3.63824 9.66491 3.81205C9.85701 3.98585 10.1085 4.08239 10.3695 4.08254C10.5521 4.08217 10.7274 4.15304 10.857 4.27955C10.9866 4.40609 11.0599 4.578 11.0609 4.75761C11.0619 4.93722 10.9905 5.10991 10.8623 5.23783C10.7341 5.36575 10.5595 5.43854 10.3769 5.44016Z" fill="#1AE5BE"/>
<path d="M2.51865 11.6903V13.326C2.23878 13.3269 1.97066 13.4369 1.77311 13.6319C1.57557 13.8269 1.46471 14.091 1.46485 14.3663C1.46479 14.3888 1.46929 14.4111 1.47808 14.4319C1.48687 14.4527 1.49978 14.4716 1.51605 14.4875C1.53233 14.5033 1.55164 14.5158 1.57288 14.5243C1.59411 14.5328 1.61684 14.537 1.63975 14.5367H10.7231C10.746 14.5369 10.7687 14.5327 10.7899 14.5243C10.8111 14.5158 10.8303 14.5033 10.8465 14.4874C10.8628 14.4716 10.8756 14.4527 10.8843 14.4319C10.893 14.4111 10.8975 14.3889 10.8973 14.3664C10.8974 14.091 10.7864 13.8268 10.5887 13.6318C10.3911 13.4368 10.1228 13.3268 9.84287 13.326V11.675C9.84287 10.0776 8.7739 8.7227 7.30577 8.25787C8.1771 7.98189 8.9122 7.39571 9.36695 6.61426L9.06197 6.44092C8.7733 6.93829 8.35632 7.35189 7.85312 7.63999C7.34992 7.92811 6.77835 8.0805 6.19612 8.08178H6.1725C5.47327 8.08343 4.79157 7.86664 4.22567 7.4627C3.65975 7.05873 3.23885 6.48846 3.02365 5.83409H8.02647V5.48828H2.9328C2.8918 5.27488 2.87087 5.05822 2.87022 4.84104V3.18295H7.48832C7.53492 3.18295 7.57965 3.16473 7.6126 3.13232C7.64557 3.09988 7.6641 3.05592 7.6641 3.01006C7.6641 2.9642 7.64557 2.92023 7.6126 2.88779C7.57965 2.85538 7.53492 2.83716 7.48832 2.83716H2.52452C2.19428 2.83716 1.91605 2.63545 1.83765 2.31846H7.90302C7.94962 2.31846 7.99435 2.30024 8.0273 2.26781C8.06027 2.23539 8.0788 2.19141 8.0788 2.14556C8.0788 2.0997 8.06027 2.05572 8.0273 2.0233C7.99435 1.99087 7.94962 1.97266 7.90302 1.97266H1.63975C1.59307 1.97303 1.54844 1.9916 1.51566 2.02428C1.48287 2.05697 1.4646 2.10111 1.46485 2.14703C1.46451 2.42276 1.57517 2.68741 1.77264 2.88312C1.97012 3.07883 2.23833 3.18969 2.51865 3.19143V4.84239C2.52052 5.60147 2.7662 6.34055 3.22057 6.9541C3.67497 7.56762 4.31482 8.02426 5.0488 8.2588C4.31232 8.49413 3.67067 8.95306 3.21607 9.56963C2.76145 10.1862 2.5173 10.9287 2.51865 11.6903ZM10.5253 14.1909H1.83759C1.87941 14.0429 1.96902 13.9122 2.09293 13.8186C2.21684 13.7251 2.36831 13.6737 2.52452 13.6722H9.83845C9.99465 13.6737 10.1461 13.7251 10.27 13.8187C10.3939 13.9122 10.4835 14.0429 10.5253 14.1909ZM3.99797 13.3264L5.42627 11.9051C5.61587 11.7169 5.87357 11.6104 6.1429 11.6089C6.41222 11.6074 6.67115 11.711 6.86287 11.8971L8.29945 13.3264H3.99797ZM6.16685 8.42756H6.1903C8.0089 8.42756 9.49132 9.88583 9.49132 11.6754V13.3264H8.79385L7.121 11.6618L7.11015 11.651C6.852 11.4006 6.50342 11.2611 6.14085 11.2632C5.7783 11.2652 5.43137 11.4087 5.1762 11.662L3.50355 13.3264H2.87022V11.6899C2.8678 10.8274 3.2137 9.99924 3.83187 9.38747C4.45005 8.77571 5.28995 8.43044 6.16685 8.42756Z" fill="#FF4500"/>
<path d="M10.3693 6.92813C10.9956 6.92813 11.6077 6.74547 12.1284 6.40325C12.6491 6.06103 13.055 5.57464 13.2946 5.00555C13.5342 4.43648 13.5969 3.81029 13.4748 3.20616C13.3526 2.60203 13.051 2.04712 12.6082 1.61158C12.1653 1.17604 11.6012 0.879437 10.987 0.759287C10.3728 0.639137 9.73615 0.700831 9.1576 0.93657C8.57905 1.17231 8.08455 1.5715 7.73668 2.08367C7.38878 2.59583 7.2031 3.19797 7.20313 3.81393C7.2041 4.6396 7.538 5.43118 8.13158 6.01497C8.72515 6.59879 9.52992 6.92719 10.3693 6.92813ZM10.3693 1.04529C10.926 1.04529 11.4702 1.20766 11.9331 1.51186C12.396 1.81607 12.7567 2.24845 12.9697 2.75432C13.1828 3.26021 13.2386 3.81686 13.13 4.35388C13.0213 4.89093 12.7533 5.38423 12.3597 5.77143C11.9661 6.1586 11.4645 6.42231 10.9186 6.52913C10.3726 6.63597 9.80663 6.58116 9.29233 6.37163C8.778 6.16212 8.3384 5.80728 8.0291 5.35202C7.7198 4.89676 7.55473 4.36151 7.5547 3.81393C7.5555 3.07992 7.8523 2.37618 8.37997 1.85713C8.90765 1.33809 9.6231 1.04612 10.3693 1.04529Z" fill="#1AE5BE"/>
</svg>
