<svg width="28" height="28" viewBox="0 0 28 28" fill="none" xmlns="http://www.w3.org/2000/svg">
<path fill-rule="evenodd" clip-rule="evenodd" d="M20.6833 14.9146C20.7207 14.616 20.7487 14.3173 20.7487 14C20.7487 13.6826 20.7207 13.384 20.6833 13.0853L22.6527 11.5453C22.83 11.4053 22.8767 11.1533 22.7647 10.948L20.898 7.71863C20.786 7.51329 20.534 7.43863 20.3287 7.51329L18.0047 8.44663C17.5193 8.07329 16.9967 7.76529 16.4273 7.53196L16.0727 5.05863C16.0447 4.83463 15.8487 4.66663 15.6153 4.66663H11.882C11.6487 4.66663 11.4527 4.83463 11.4247 5.05863L11.07 7.53196C10.5007 7.76529 9.97801 8.08263 9.49268 8.44663L7.16868 7.51329C6.95401 7.42929 6.71134 7.51329 6.59934 7.71863L4.73268 10.948C4.61134 11.1533 4.66734 11.4053 4.84468 11.5453L6.81401 13.0853C6.77668 13.384 6.74868 13.692 6.74868 14C6.74868 14.308 6.77668 14.616 6.81401 14.9146L4.84468 16.4546C4.66734 16.5946 4.62068 16.8466 4.73268 17.052L6.59934 20.2813C6.71134 20.4866 6.96334 20.5613 7.16868 20.4866L9.49268 19.5533C9.97801 19.9266 10.5007 20.2346 11.07 20.468L11.4247 22.9413C11.4527 23.1653 11.6487 23.3333 11.882 23.3333H15.6153C15.8487 23.3333 16.0447 23.1653 16.0727 22.9413L16.4273 20.468C16.9967 20.2346 17.5193 19.9173 18.0047 19.5533L20.3287 20.4866C20.5433 20.5706 20.786 20.4866 20.898 20.2813L22.7647 17.052C22.8767 16.8466 22.83 16.5946 22.6527 16.4546L20.6833 14.9146ZM13.7487 17.2666C11.9473 17.2666 10.482 15.8013 10.482 14C10.482 12.1986 11.9473 10.7333 13.7487 10.7333C15.55 10.7333 17.0153 12.1986 17.0153 14C17.0153 15.8013 15.55 17.2666 13.7487 17.2666Z" fill="#C3CAD9"/>
</svg>
