<svg width="14" height="14" viewBox="0 0 14 14" fill="none" xmlns="http://www.w3.org/2000/svg">
<path d="M10.9446 8.54699C10.7719 8.71433 10.6926 8.95633 10.7319 9.19366L11.3246 12.4737C11.3746 12.7517 11.2573 13.033 11.0246 13.1937C10.7966 13.3603 10.4933 13.3803 10.2446 13.247L7.29195 11.707C7.18928 11.6523 7.07528 11.623 6.95862 11.6197H6.77795C6.71528 11.629 6.65395 11.649 6.59795 11.6797L3.64462 13.227C3.49862 13.3003 3.33328 13.3263 3.17128 13.3003C2.77662 13.2257 2.51328 12.8497 2.57795 12.453L3.17128 9.17299C3.21062 8.93366 3.13128 8.69033 2.95862 8.52033L0.551282 6.18699C0.349948 5.99166 0.279948 5.69833 0.371948 5.43366C0.461282 5.16966 0.689282 4.97699 0.964615 4.93366L4.27795 4.45299C4.52995 4.42699 4.75128 4.27366 4.86462 4.04699L6.32462 1.05366C6.35928 0.986992 6.40395 0.925659 6.45795 0.873659L6.51795 0.826992C6.54928 0.792326 6.58528 0.763659 6.62528 0.740326L6.69795 0.713659L6.81128 0.666992H7.09195C7.34262 0.692992 7.56328 0.842992 7.67862 1.06699L9.15795 4.04699C9.26462 4.26499 9.47195 4.41633 9.71128 4.45299L13.0246 4.93366C13.3046 4.97366 13.5386 5.16699 13.6313 5.43366C13.7186 5.70099 13.6433 5.99433 13.4379 6.18699L10.9446 8.54699Z" fill="url(#paint0_linear_2360_8684)"/>
<defs>
<linearGradient id="paint0_linear_2360_8684" x1="6.99957" y1="0.666992" x2="6.99957" y2="13.3345" gradientUnits="userSpaceOnUse">
<stop stop-color="#F7B502"/>
<stop offset="1" stop-color="#E88405"/>
</linearGradient>
</defs>
</svg>
