<svg width="14" height="14" viewBox="0 0 14 14" fill="none" xmlns="http://www.w3.org/2000/svg">
<path d="M6.93734 12.3627C7.23753 12.3627 7.48088 12.1193 7.48088 11.8191C7.48088 11.519 7.23753 11.2756 6.93734 11.2756V12.3627ZM3.67611 10.7321V5.84021H2.58903V10.7321H3.67611ZM6.93734 11.2756H4.21965V12.3627H6.93734V11.2756ZM2.58903 10.7321C2.58903 11.6326 3.31908 12.3627 4.21965 12.3627V11.2756C3.91946 11.2756 3.67611 11.0323 3.67611 10.7321H2.58903Z" fill="#3FC8E4"/>
<path d="M5.93315 2.30725H9.02691M5.93315 2.30725L5.75603 4.36044C5.68456 5.30694 6.47697 6.11203 7.48003 6.11203C8.48309 6.11203 9.2755 5.30694 9.20403 4.36044L9.02691 2.30725M5.93315 2.30725H2.83939L2.35507 4.15272C2.12665 5.16112 2.93925 6.11203 4.02939 6.11203C4.92774 6.11203 5.67336 5.45525 5.73737 4.60755L5.93315 2.30725ZM9.02691 2.30725H12.1207L12.605 4.15272C12.8334 5.16112 12.0208 6.11203 10.9307 6.11203C10.0323 6.11203 9.2867 5.45525 9.22269 4.60755L9.02691 2.30725Z" stroke="#3FC8E4" stroke-width="1.08708" stroke-linecap="round" stroke-linejoin="round"/>
<path d="M9.38269 8.01453H12.3722M9.38269 9.91691H12.3722M9.38269 11.8193H11.0133" stroke="#3FC8E4" stroke-width="1.08708" stroke-linecap="round" stroke-linejoin="round"/>
</svg>
