<svg width="25" height="26" viewBox="0 0 25 26" fill="none" xmlns="http://www.w3.org/2000/svg">
<path fill-rule="evenodd" clip-rule="evenodd" d="M21.6357 13C21.6357 12.6262 21.4335 12.3808 21.0291 11.8899C19.5499 10.0939 16.2871 6.75 12.4999 6.75C8.71274 6.75 5.45002 10.0939 3.97076 11.8899C3.56642 12.3808 3.36426 12.6262 3.36426 13C3.36426 13.3737 3.56642 13.6192 3.97076 14.1101C5.45002 15.9061 8.71274 19.25 12.4999 19.25C16.2871 19.25 19.5499 15.9061 21.0291 14.1101C21.4335 13.6192 21.6357 13.3737 21.6357 13ZM12.4999 16.125C14.2259 16.125 15.6249 14.7259 15.6249 13C15.6249 11.2741 14.2259 9.875 12.4999 9.875C10.7741 9.875 9.37497 11.2741 9.37497 13C9.37497 14.7259 10.7741 16.125 12.4999 16.125Z" fill="#33363F"/>
</svg>
