<svg width="30" height="30" viewBox="0 0 30 30" fill="none" xmlns="http://www.w3.org/2000/svg">
<path d="M24.9994 13.5312L25 21.0729C25 23.1614 23.8571 24.8692 22.4148 24.9928L22.247 25H7.75367C6.28957 25 5.09241 23.3696 5.00574 21.3121L5.00072 21.0729L5 13.5312H24.9994ZM21.26 18.5369H18.7573L18.6554 18.5467C18.289 18.6176 18.0065 19.0657 18.0065 19.608C18.0065 20.1502 18.289 20.5983 18.6554 20.6692L18.7573 20.679H21.26L21.3619 20.6692C21.7284 20.5983 22.0108 20.1502 22.0108 19.608C22.0108 19.0657 21.7284 18.6176 21.3619 18.5467L21.26 18.5369ZM22.247 5C23.7111 5 24.9083 6.63041 24.995 8.68791L25 8.92715L24.9994 11.3891H5L5.00072 8.92715C5.00072 6.83857 6.14365 5.1308 7.58597 5.00717L7.75367 5H22.247Z" fill="#C3CAD9"/>
</svg>
