<svg width="28" height="28" viewBox="0 0 28 28" fill="none" xmlns="http://www.w3.org/2000/svg">
<g clip-path="url(#clip0_93_151)">
<path d="M17.5 8.16667L9.91669 15.75C9.45256 16.2141 9.19181 16.8436 9.19181 17.5C9.19181 18.1564 9.45256 18.7859 9.91669 19.25C10.3808 19.7141 11.0103 19.9749 11.6667 19.9749C12.3231 19.9749 12.9526 19.7141 13.4167 19.25L21 11.6667C21.9283 10.7384 22.4498 9.47942 22.4498 8.16667C22.4498 6.85391 21.9283 5.59492 21 4.66667C20.0718 3.73841 18.8128 3.21692 17.5 3.21692C16.1873 3.21692 14.9283 3.73841 14 4.66667L6.41669 12.25C5.0243 13.6424 4.24207 15.5309 4.24207 17.5C4.24207 19.4691 5.0243 21.3576 6.41669 22.75C7.80907 24.1424 9.69755 24.9246 11.6667 24.9246C13.6358 24.9246 15.5243 24.1424 16.9167 22.75L24.5 15.1667" stroke="#08080F" stroke-width="1.8" stroke-linecap="round" stroke-linejoin="round"/>
</g>
<defs>
<clipPath id="clip0_93_151">
<rect width="28" height="28" fill="white"/>
</clipPath>
</defs>
</svg>
