<svg width="28" height="28" viewBox="0 0 28 28" fill="none" xmlns="http://www.w3.org/2000/svg">
<g clip-path="url(#clip0_93_141)">
<path d="M3.5 14C3.5 15.3789 3.77159 16.7443 4.29926 18.0182C4.82694 19.2921 5.60036 20.4496 6.57538 21.4246C7.55039 22.3996 8.70791 23.1731 9.98182 23.7007C11.2557 24.2284 12.6211 24.5 14 24.5C15.3789 24.5 16.7443 24.2284 18.0182 23.7007C19.2921 23.1731 20.4496 22.3996 21.4246 21.4246C22.3996 20.4496 23.1731 19.2921 23.7007 18.0182C24.2284 16.7443 24.5 15.3789 24.5 14C24.5 12.6211 24.2284 11.2557 23.7007 9.98182C23.1731 8.70791 22.3996 7.55039 21.4246 6.57538C20.4496 5.60036 19.2921 4.82694 18.0182 4.29927C16.7443 3.77159 15.3789 3.5 14 3.5C12.6211 3.5 11.2557 3.77159 9.98182 4.29927C8.70791 4.82694 7.55039 5.60036 6.57538 6.57538C5.60036 7.55039 4.82694 8.70791 4.29926 9.98182C3.77159 11.2557 3.5 12.6211 3.5 14Z" stroke="#08080F" stroke-width="1.8" stroke-linecap="round" stroke-linejoin="round"/>
<path d="M16.9166 17.5C16.5365 17.888 16.0827 18.1963 15.5818 18.4067C15.081 18.6172 14.5432 18.7256 14 18.7256C13.4567 18.7256 12.919 18.6172 12.4181 18.4067C11.9173 18.1963 11.4635 17.888 11.0833 17.5" stroke="#08080F" stroke-width="1.8" stroke-linecap="round" stroke-linejoin="round"/>
<path d="M9.33331 10.5L11.6666 12.8333" stroke="#08080F" stroke-width="1.8" stroke-linecap="round" stroke-linejoin="round"/>
<path d="M11.6666 10.5L9.33331 12.8333" stroke="#08080F" stroke-width="1.8" stroke-linecap="round" stroke-linejoin="round"/>
<path d="M16.3333 10.5L18.6666 12.8333" stroke="#08080F" stroke-width="1.8" stroke-linecap="round" stroke-linejoin="round"/>
<path d="M18.6666 10.5L16.3333 12.8333" stroke="#08080F" stroke-width="1.8" stroke-linecap="round" stroke-linejoin="round"/>
</g>
<defs>
<clipPath id="clip0_93_141">
<rect width="28" height="28" fill="white"/>
</clipPath>
</defs>
</svg>
