<svg width="40" height="40" viewBox="0 0 40 40" fill="none" xmlns="http://www.w3.org/2000/svg">
<rect width="40" height="40" rx="10" fill="#08080F"/>
<path d="M23.45 12.4666L15.925 14.9666C10.8666 16.6583 10.8666 19.4166 15.925 21.1L18.1583 21.8416L18.9 24.075C20.5833 29.1333 23.35 29.1333 25.0333 24.075L27.5416 16.5583C28.6583 13.1833 26.825 11.3416 23.45 12.4666ZM23.7166 16.95L20.55 20.1333C20.425 20.2583 20.2666 20.3166 20.1083 20.3166C19.95 20.3166 19.7916 20.2583 19.6666 20.1333C19.425 19.8916 19.425 19.4916 19.6666 19.25L22.8333 16.0666C23.075 15.825 23.475 15.825 23.7166 16.0666C23.9583 16.3083 23.9583 16.7083 23.7166 16.95Z" fill="white"/>
</svg>
