<svg width="20" height="20" viewBox="0 0 20 20" fill="none" xmlns="http://www.w3.org/2000/svg">
<g clip-path="url(#clip0_93_195)">
<path d="M12.5 6.66666C13.0175 7.05477 13.4375 7.55804 13.7268 8.1366C14.0161 8.71516 14.1667 9.35314 14.1667 9.99999C14.1667 10.6468 14.0161 11.2848 13.7268 11.8634C13.4375 12.4419 13.0175 12.9452 12.5 13.3333" stroke="#414146" stroke-width="1.5" stroke-linecap="round" stroke-linejoin="round"/>
<path d="M14.75 4.16666C15.62 4.8697 16.3217 5.75843 16.8037 6.76776C17.2858 7.77709 17.536 8.88146 17.536 9.99999C17.536 11.1185 17.2858 12.2229 16.8037 13.2322C16.3217 14.2416 15.62 15.1303 14.75 15.8333" stroke="#414146" stroke-width="1.5" stroke-linecap="round" stroke-linejoin="round"/>
<path d="M5 12.5H3.33333C3.11232 12.5 2.90036 12.4122 2.74408 12.2559C2.5878 12.0996 2.5 11.8877 2.5 11.6667V8.33333C2.5 8.11232 2.5878 7.90036 2.74408 7.74408C2.90036 7.5878 3.11232 7.5 3.33333 7.5H5L7.91667 3.75C7.9895 3.60852 8.11054 3.49777 8.25791 3.43774C8.40527 3.37772 8.56925 3.37238 8.72021 3.4227C8.87117 3.47302 8.99915 3.57567 9.08103 3.71211C9.16291 3.84856 9.19328 4.00978 9.16667 4.16666V15.8333C9.19328 15.9902 9.16291 16.1514 9.08103 16.2879C8.99915 16.4243 8.87117 16.527 8.72021 16.5773C8.56925 16.6276 8.40527 16.6223 8.25791 16.5623C8.11054 16.5022 7.9895 16.3915 7.91667 16.25L5 12.5Z" stroke="#414146" stroke-width="1.5" stroke-linecap="round" stroke-linejoin="round"/>
</g>
<defs>
<clipPath id="clip0_93_195">
<rect width="20" height="20" fill="white"/>
</clipPath>
</defs>
</svg>
